<?xml version="1.0" encoding="UTF-8" standalone="no"?>
<!-- Uploaded to: SVG Repo, www.svgrepo.com, Generator: SVG Repo Mixer Tools -->

<svg
   height="800"
   width="579.30939"
   version="1.1"
   id="Layer_1"
   viewBox="0 0 370.75801 512"
   xml:space="preserve"
   sodipodi:docname="card-back.svg"
   inkscape:version="1.4 (86a8ad7, 2024-10-11)"
   xmlns:inkscape="http://www.inkscape.org/namespaces/inkscape"
   xmlns:sodipodi="http://sodipodi.sourceforge.net/DTD/sodipodi-0.dtd"
   xmlns="http://www.w3.org/2000/svg"
   xmlns:svg="http://www.w3.org/2000/svg"><defs
   id="defs12" /><sodipodi:namedview
   id="namedview12"
   pagecolor="#ffffff"
   bordercolor="#000000"
   borderopacity="0.25"
   inkscape:showpageshadow="2"
   inkscape:pageopacity="0.0"
   inkscape:pagecheckerboard="0"
   inkscape:deskcolor="#d1d1d1"
   inkscape:zoom="0.97875"
   inkscape:cx="289.14432"
   inkscape:cy="400"
   inkscape:window-width="1245"
   inkscape:window-height="991"
   inkscape:window-x="952"
   inkscape:window-y="0"
   inkscape:window-maximized="0"
   inkscape:current-layer="Layer_1" />
<g
   id="g12"
   transform="translate(-70.621)">
	<path
   style="fill:#e6eef4"
   d="M 423.724,0 H 88.276 C 78.522,0 70.621,7.901 70.621,17.655 v 476.69 c 0,9.754 7.901,17.655 17.655,17.655 h 335.448 c 9.754,0 17.655,-7.901 17.655,-17.655 V 17.655 C 441.379,7.901 433.479,0 423.724,0"
   id="path1" />
	<g
   id="g11">
		<path
   style="fill:#d71e00"
   d="m 406.069,485.517 c 4.875,0 8.828,-3.952 8.828,-8.828 V 35.31 c 0,-4.875 -3.952,-8.828 -8.828,-8.828 H 105.931 c -4.875,0 -8.828,3.952 -8.828,8.828 v 441.38 c 0,4.875 3.952,8.828 8.828,8.828 H 406.069 Z M 114.759,476.69 V 35.31 l -8.828,8.828 h 300.138 l -8.828,-8.828 v 441.38 l 8.828,-8.828 H 105.931 Z"
   id="path2" />
		<path
   style="fill:#d71e00"
   d="m 99.691,104.376 c -3.447,3.447 -3.447,9.037 0,12.484 3.447,3.447 9.037,3.447 12.484,0 l 75.308,-75.308 c 3.447,-3.447 3.447,-9.037 0,-12.484 -3.447,-3.447 -9.037,-3.447 -12.484,0 z"
   id="path3" />
		<path
   style="fill:#d71e00"
   d="m 262.383,41.557 c 3.447,-3.447 3.447,-9.037 0,-12.484 -3.447,-3.447 -9.037,-3.447 -12.484,0 l -150.21,150.21 c -3.447,3.447 -3.447,9.037 0,12.484 3.447,3.447 9.037,3.447 12.484,0 z"
   id="path4" />
		<path
   style="fill:#d71e00"
   d="m 337.294,41.551 c 3.447,-3.447 3.447,-9.037 0,-12.484 -3.447,-3.447 -9.037,-3.447 -12.484,0 L 99.689,254.188 c -3.447,3.447 -3.447,9.037 0,12.484 3.447,3.447 9.037,3.447 12.484,0 z"
   id="path5" />
		<path
   style="fill:#d71e00"
   d="m 412.196,41.553 c 3.447,-3.447 3.447,-9.037 0,-12.484 -3.447,-3.447 -9.037,-3.447 -12.484,0 L 99.689,329.092 c -3.447,3.447 -3.447,9.037 0,12.484 3.447,3.447 9.037,3.447 12.484,0 z"
   id="path6" />
		<path
   style="fill:#d71e00"
   d="m 412.311,116.342 c 3.447,-3.447 3.447,-9.037 0,-12.484 -3.447,-3.447 -9.037,-3.447 -12.484,0 L 99.689,403.996 c -3.447,3.447 -3.447,9.037 0,12.484 3.447,3.447 9.037,3.447 12.484,0 z"
   id="path7" />
		<path
   style="fill:#d71e00"
   d="m 412.315,191.244 c 3.447,-3.447 3.447,-9.037 0,-12.484 -3.447,-3.447 -9.037,-3.447 -12.484,0 L 114.797,463.793 c -3.447,3.447 -3.447,9.037 0,12.484 3.447,3.447 9.037,3.447 12.484,0 z"
   id="path8" />
		<path
   style="fill:#d71e00"
   d="m 183.048,470.447 c -3.447,3.447 -3.447,9.037 0,12.484 3.447,3.447 9.037,3.447 12.484,0 L 412.311,266.152 c 3.447,-3.447 3.447,-9.037 0,-12.484 -3.447,-3.447 -9.037,-3.447 -12.484,0 z"
   id="path9" />
		<path
   style="fill:#d71e00"
   d="m 257.95,470.449 c -3.447,3.447 -3.447,9.037 0,12.484 3.447,3.447 9.037,3.447 12.484,0 L 412.311,341.056 c 3.447,-3.447 3.447,-9.037 0,-12.484 -3.447,-3.447 -9.037,-3.447 -12.484,0 z"
   id="path10" />
		<path
   style="fill:#d71e00"
   d="m 412.315,415.957 c 3.447,-3.447 3.447,-9.037 0,-12.484 -3.447,-3.447 -9.037,-3.447 -12.484,0 l -66.975,66.975 c -3.447,3.447 -3.447,9.037 0,12.484 3.447,3.447 9.037,3.447 12.484,0 z"
   id="path11" />
	</g>
</g>
</svg>
