<?xml version="1.0" encoding="UTF-8" standalone="no"?>
<!-- Created with Inkscape (http://www.inkscape.org/) -->

<svg
   version="1.1"
   id="svg1"
   width="581.97864"
   height="801.6712"
   viewBox="0 0 581.97864 801.6712"
   sodipodi:docname="clubs-1.svg"
   inkscape:version="1.4 (86a8ad7, 2024-10-11)"
   xmlns:inkscape="http://www.inkscape.org/namespaces/inkscape"
   xmlns:sodipodi="http://sodipodi.sourceforge.net/DTD/sodipodi-0.dtd"
   xmlns="http://www.w3.org/2000/svg"
   xmlns:svg="http://www.w3.org/2000/svg">
  <sodipodi:namedview
     id="namedview1"
     pagecolor="#ffffff"
     bordercolor="#000000"
     borderopacity="0.25"
     inkscape:showpageshadow="2"
     inkscape:pageopacity="0.0"
     inkscape:pagecheckerboard="0"
     inkscape:deskcolor="#d1d1d1"
     inkscape:zoom="0.97875"
     inkscape:cx="291.18774"
     inkscape:cy="401.02171"
     inkscape:window-width="1261"
     inkscape:window-height="991"
     inkscape:window-x="649"
     inkscape:window-y="0"
     inkscape:window-maximized="0"
     inkscape:current-layer="svg1" />
  <defs
     id="defs1" />
  <g
     id="g1"
     transform="translate(-108,1)">
    <path
       style="fill:#e5edf3;stroke:none"
       d="m 132.10031,0.32172064 c -22.14949,4.17883296 -23,25.38342236 -23,43.53240936 v 135 432 120 c 0,16.15302 -4.04562,39.15833 3.37808,54 7.53839,15.07098 23.04711,15 37.62192,15 h 94 289 90 c 14.28345,0 31.08527,2.40771 45,-1.04321 21.54761,-5.34394 21,-27.1377 21,-44.95679 v -133 -439 -118 c 0,-15.364624 3.82184,-37.304993 -4.47913,-50.999207 -8.56219,-14.1251823 -24.17675,-13.00079269 -38.52087,-13.00079269 h -94 -284 -91 c -14.39906,0 -30.84322,-2.20330811 -45,0.46759033 z"
       id="path1-8" />
    <path
       style="display:inline;fill:#010101;stroke:none"
       d="M 164,41.558655 C 146.50362,43.660156 152,70.750122 152,83 v 117 c 0,12.84625 -3.75496,36.06616 16,33.89124 C 184.4361,232.08173 179,203.37958 179,192 V 75 c 0,-11.317139 3.53554,-35.667664 -15,-33.441345 M 332,420 c -43.32251,-5.47507 -88.08049,12.88226 -105.54707,56 -22.18877,54.77484 23.22809,117.71796 81.54707,117.99927 19.76733,0.0953 33.46024,-5.81012 51,-13.99927 -0.84879,19.76575 -3.45084,39.73468 -8.12964,59 -1.10199,4.53748 -6.85165,17.36853 -3.82794,21.39661 C 349.93353,664.24805 363.59396,662 368,662 h 62 c 4.30981,0 21.47928,2.42322 23.30322,-2.31787 2.10987,-5.48438 -3.87396,-17.96002 -5.09256,-23.68213 -3.93316,-18.46863 -6.4017,-37.16199 -7.21066,-56 17.45096,8.15729 31.33307,14.03162 51,14 58.47174,-0.094 103.73047,-63.2384 81.54706,-118 C 556.05072,432.80878 511.40179,414.51489 468,420 c 10.11646,-13.16129 16.58908,-27.61487 19.24615,-44 1.69965,-10.48105 1.10514,-21.69705 -1.37655,-32 -16.90357,-70.17639 -109.80722,-92.61072 -155.20062,-35 -7.12265,9.03964 -12.84406,19.85394 -15.7847,31 -3.45389,13.09146 -3.86548,26.68637 -1.4599,40 2.69961,14.94098 9.17108,28.1412 18.57562,40 z"
       id="path1" />
  </g>
</svg>
