<?xml version="1.0" encoding="UTF-8" standalone="no"?>
<!-- Uploaded to: SVG Repo, www.svgrepo.com, Generator: SVG Repo Mixer Tools -->

<svg
   height="800"
   width="579.30939"
   version="1.1"
   id="Layer_1"
   viewBox="0 0 370.75801 512"
   xml:space="preserve"
   sodipodi:docname="clubs-7.svg"
   inkscape:version="1.4 (86a8ad7, 2024-10-11)"
   xmlns:inkscape="http://www.inkscape.org/namespaces/inkscape"
   xmlns:sodipodi="http://sodipodi.sourceforge.net/DTD/sodipodi-0.dtd"
   xmlns="http://www.w3.org/2000/svg"
   xmlns:svg="http://www.w3.org/2000/svg"><defs
   id="defs6" /><sodipodi:namedview
   id="namedview6"
   pagecolor="#ffffff"
   bordercolor="#000000"
   borderopacity="0.25"
   inkscape:showpageshadow="2"
   inkscape:pageopacity="0.0"
   inkscape:pagecheckerboard="0"
   inkscape:deskcolor="#d1d1d1"
   inkscape:zoom="0.97875"
   inkscape:cx="289.14432"
   inkscape:cy="400"
   inkscape:window-width="1920"
   inkscape:window-height="1001"
   inkscape:window-x="-9"
   inkscape:window-y="-9"
   inkscape:window-maximized="1"
   inkscape:current-layer="Layer_1" />
<g
   id="g6"
   transform="translate(-70.621)">
	<path
   style="fill:#e6eef4"
   d="M 423.724,0 H 88.276 C 78.522,0 70.621,7.901 70.621,17.655 v 476.69 c 0,9.754 7.901,17.655 17.655,17.655 h 335.448 c 9.754,0 17.655,-7.901 17.655,-17.655 V 17.655 C 441.379,7.901 433.479,0 423.724,0"
   id="path1" />
	<g
   id="g5">
		<path
   d="m 282.483,370.759 c 0,21.91 6.038,43.82 8.13,50.732 0.344,1.139 -0.521,2.233 -1.704,2.233 h -65.827 c -1.183,0 -2.039,-1.095 -1.704,-2.225 2.074,-6.947 8.139,-29.096 8.139,-50.741 -8.73,6.321 -18.803,9.578 -29.917,9.578 -32.274,0 -60.275,-27.101 -58.253,-59.78 1.13,-18.379 12.835,-34.145 28.425,-43.926 15.651,-9.825 30.164,-10.611 43.14,-7.459 -8.298,-9.825 -13.312,-22.502 -13.312,-36.361 0,-34.834 31.576,-62.296 67.663,-55.314 22.59,4.361 40.536,22.925 44.332,45.612 2.948,17.602 -2.304,33.986 -12.5,46.062 13.065,-3.169 27.692,-2.348 43.467,7.662 15.519,9.852 27.18,25.582 28.248,43.926 1.889,32.591 -26.2,59.577 -58.403,59.577 -10.963,0.002 -21.361,-3.388 -29.924,-9.576"
   id="path2" />
		<path
   d="m 158.897,44.138 c 4.875,0 8.828,-3.952 8.828,-8.828 0,-4.876 -3.952,-8.828 -8.828,-8.828 h -52.966 c -4.875,0 -8.828,3.952 -8.828,8.828 0,4.876 3.952,8.828 8.828,8.828 z"
   id="path3" />
		<path
   d="m 114.759,35.31 c 0,-4.875 -3.952,-8.828 -8.828,-8.828 -4.875,0 -8.828,3.952 -8.828,8.828 v 8.828 c 0,4.875 3.952,8.828 8.828,8.828 4.875,0 8.828,-3.952 8.828,-8.828 z"
   id="path4" />
		<path
   d="m 114.881,122.122 c -0.809,4.808 2.433,9.361 7.241,10.17 4.808,0.809 9.361,-2.433 10.17,-7.241 6.146,-36.533 13.104,-53.566 33.951,-84.845 2.704,-4.057 1.607,-9.538 -2.45,-12.241 -4.057,-2.703 -9.538,-1.607 -12.241,2.45 -22.194,33.299 -30.101,52.655 -36.671,91.707 z"
   id="path5" />
	</g>
</g>
</svg>
