<?xml version="1.0" encoding="UTF-8" standalone="no"?>
<!-- Created with Inkscape (http://www.inkscape.org/) -->

<svg
   version="1.1"
   id="svg1"
   width="581.97864"
   height="801.6712"
   viewBox="0 0 581.97864 801.6712"
   sodipodi:docname="hearts-4.svg"
   inkscape:version="1.4 (86a8ad7, 2024-10-11)"
   xmlns:inkscape="http://www.inkscape.org/namespaces/inkscape"
   xmlns:sodipodi="http://sodipodi.sourceforge.net/DTD/sodipodi-0.dtd"
   xmlns="http://www.w3.org/2000/svg"
   xmlns:svg="http://www.w3.org/2000/svg">
  <sodipodi:namedview
     id="namedview1"
     pagecolor="#ffffff"
     bordercolor="#000000"
     borderopacity="0.25"
     inkscape:showpageshadow="2"
     inkscape:pageopacity="0.0"
     inkscape:pagecheckerboard="0"
     inkscape:deskcolor="#d1d1d1"
     inkscape:zoom="0.97875"
     inkscape:cx="291.18774"
     inkscape:cy="401.02171"
     inkscape:window-width="1920"
     inkscape:window-height="1001"
     inkscape:window-x="-9"
     inkscape:window-y="-9"
     inkscape:window-maximized="1"
     inkscape:current-layer="svg1" />
  <defs
     id="defs1" />
  <g
     id="g1"
     transform="translate(-108,1)">
    <path
       style="display:inline;fill:#e5edf3;stroke:none"
       d="m 132.10031,0.32172064 c -22.14949,4.17883296 -23,25.38342236 -23,43.53240936 v 135 432 120 c 0,16.15302 -4.04562,39.15833 3.37808,54 7.53839,15.07098 23.04711,15 37.62192,15 h 94 289 90 c 14.28345,0 31.08527,2.40771 45,-1.04321 21.54761,-5.34394 21,-27.1377 21,-44.95679 v -133 -439 -118 c 0,-15.364624 3.82184,-37.304993 -4.47913,-50.999207 -8.56219,-14.1251823 -24.17675,-13.00079269 -38.52087,-13.00079269 h -94 -284 -91 c -14.39906,0 -30.84322,-2.20330811 -45,0.46759033 z"
       id="path1-8" />
    <path
       style="fill:#d71e02;stroke:none"
       d="m 233,179 v 28 c -6.24533,0 -14.25255,-1.31647 -19.95987,1.68829 -8.73051,4.59638 -9.37431,18.01099 -0.99692,23.30243 7.8239,4.94184 25.76508,2.65345 34.95679,2.88043 8.73651,0.21576 27.33752,1.86896 34.90665,-2.44366 9.44995,-5.38422 8.49316,-19.20264 -0.9105,-23.9707 C 275.34952,205.59369 267.15891,207 261,207 v -28 c 5.94449,0 14.57068,1.57196 19.99615,-1.17902 9.90787,-5.02374 9.92511,-19.60919 0,-24.64196 C 275.57086,150.42798 266.94431,152 261,152 V 72 c 0,-9.567749 2.80487,-23.237244 -7.00462,-28.910522 C 240.51492,35.293152 231.97121,52.203003 225.37346,61 l -59.24692,79 c -6.60727,8.80969 -22.5002,23.37054 -11.89815,34.89124 C 160.14342,181.31879 169.2529,179.00049 177,179 h 56 m 0,-81 v 54 H 193 L 208.12654,130 233,98 m 167,273 h -2 C 379.05124,305.22394 300.44058,285.13721 249,325.66898 203.1935,361.76144 193.91147,432.22253 223.81096,481 c 12.91008,21.06125 32.86345,37.67444 50.18904,55 27.16638,27.16638 53.82071,54.82068 81,82 10.51334,10.51331 20.48553,21.48553 31,32 2.94797,2.948 8.30875,10.72009 12.91049,10.6543 C 404.10129,660.58014 412.48227,648.5177 416,645 l 46,-46 c 20.16357,-20.16357 39.82208,-40.82208 60,-61 15.76154,-15.76154 33.14752,-30.86932 46.25464,-49 21.66601,-29.96991 28.36627,-68.29752 18.59332,-104 C 570.7923,326.34549 501.77515,280.20227 444,315.20447 433.92709,321.30698 424.94818,329.75711 417.66898,339 410.42249,348.20135 402.73608,359.48074 400,371 Z"
       id="path1" />
  </g>
</svg>
