<?xml version="1.0" encoding="UTF-8" standalone="no"?>
<!-- Created with Inkscape (http://www.inkscape.org/) -->

<svg
   version="1.1"
   id="svg1"
   width="581.97864"
   height="801.6712"
   viewBox="0 0 581.97864 801.6712"
   sodipodi:docname="hearts-5.svg"
   inkscape:version="1.4 (86a8ad7, 2024-10-11)"
   xmlns:inkscape="http://www.inkscape.org/namespaces/inkscape"
   xmlns:sodipodi="http://sodipodi.sourceforge.net/DTD/sodipodi-0.dtd"
   xmlns="http://www.w3.org/2000/svg"
   xmlns:svg="http://www.w3.org/2000/svg">
  <sodipodi:namedview
     id="namedview1"
     pagecolor="#ffffff"
     bordercolor="#000000"
     borderopacity="0.25"
     inkscape:showpageshadow="2"
     inkscape:pageopacity="0.0"
     inkscape:pagecheckerboard="0"
     inkscape:deskcolor="#d1d1d1"
     inkscape:zoom="0.97875"
     inkscape:cx="291.18774"
     inkscape:cy="401.02171"
     inkscape:window-width="1920"
     inkscape:window-height="1001"
     inkscape:window-x="-9"
     inkscape:window-y="-9"
     inkscape:window-maximized="1"
     inkscape:current-layer="svg1" />
  <defs
     id="defs1" />
  <g
     id="g1"
     transform="translate(-108,1)">
    <path
       style="display:inline;fill:#e5edf3;stroke:none"
       d="m 132.10031,0.32172064 c -22.14949,4.17883296 -23,25.38342236 -23,43.53240936 v 135 432 120 c 0,16.15302 -4.04562,39.15833 3.37808,54 7.53839,15.07098 23.04711,15 37.62192,15 h 94 289 90 c 14.28345,0 31.08527,2.40771 45,-1.04321 21.54761,-5.34394 21,-27.1377 21,-44.95679 v -133 -439 -118 c 0,-15.364624 3.82184,-37.304993 -4.47913,-50.999207 -8.56219,-14.1251823 -24.17675,-13.00079269 -38.52087,-13.00079269 h -94 -284 -91 c -14.39906,0 -30.84322,-2.20330811 -45,0.46759033 z"
       id="path1-8" />
    <path
       style="fill:#d71d02;stroke:none"
       d="M 178,99 V 69 h 31 c 8.97147,0 22.83406,2.584229 30.95987,-1.688293 9.03165,-4.74878 9.37677,-18.044129 1.0247,-23.584046 C 235.07722,39.809326 226.71671,41 220,41 h -45 c -6.82857,0 -15.21025,-0.988953 -20.46683,4.393555 C 149.4312,50.617737 151,59.340515 151,66 v 51 c 0,7.73322 -0.86517,15.52374 7.00386,19.86035 10.19193,5.6167 16.95432,-3.9292 24.99614,-8.50079 14.03467,-7.9784 31.34027,-2.42316 39.09491,11.64044 2.27225,4.12091 3.60284,9.27222 3.44598,14 -0.57002,17.18024 -18.47496,32.05505 -35.54089,27.21143 -8.05435,-2.28595 -12.6274,-9.21839 -20,-12.20215 C 162.06741,165.79889 152.54161,170.30225 151.21451,179 147.7973,201.39624 184.5826,211.04108 201,209.91052 245.74066,206.82953 269.4451,151.52484 240.67438,117 223.82481,96.780518 201.98154,95.770752 178,99 m 222,272 h -2 C 379.05124,305.22394 300.44058,285.13721 249,325.66898 203.1935,361.76144 193.91147,432.22253 223.81096,481 c 12.91008,21.06125 32.86345,37.67444 50.18904,55 27.16638,27.16638 53.82071,54.82068 81,82 10.51334,10.51331 20.48553,21.48553 31,32 2.94797,2.948 8.30875,10.72009 12.91049,10.6543 C 404.10129,660.58014 412.48227,648.5177 416,645 l 46,-46 c 20.16165,-20.16162 39.82306,-40.82306 60,-61 15.76154,-15.76154 33.14752,-30.86932 46.25464,-49 21.66601,-29.96991 28.36627,-68.29752 18.59332,-104 C 570.80286,326.38409 501.77591,280.20178 444,315.20447 433.92709,321.30698 424.94818,329.75711 417.66898,339 410.42249,348.20135 402.73608,359.48074 400,371 Z"
       id="path1" />
  </g>
</svg>
