<?xml version="1.0" encoding="UTF-8" standalone="no"?>
<!-- Uploaded to: SVG Repo, www.svgrepo.com, Generator: SVG Repo Mixer Tools -->

<svg
   height="800"
   width="579.30939"
   version="1.1"
   id="Layer_1"
   viewBox="0 0 370.75801 512"
   xml:space="preserve"
   sodipodi:docname="spades-3.svg"
   inkscape:version="1.4 (86a8ad7, 2024-10-11)"
   xmlns:inkscape="http://www.inkscape.org/namespaces/inkscape"
   xmlns:sodipodi="http://sodipodi.sourceforge.net/DTD/sodipodi-0.dtd"
   xmlns="http://www.w3.org/2000/svg"
   xmlns:svg="http://www.w3.org/2000/svg"><defs
   id="defs5" /><sodipodi:namedview
   id="namedview5"
   pagecolor="#ffffff"
   bordercolor="#000000"
   borderopacity="0.25"
   inkscape:showpageshadow="2"
   inkscape:pageopacity="0.0"
   inkscape:pagecheckerboard="0"
   inkscape:deskcolor="#d1d1d1"
   inkscape:zoom="0.97875"
   inkscape:cx="289.14432"
   inkscape:cy="400"
   inkscape:window-width="1920"
   inkscape:window-height="1001"
   inkscape:window-x="-9"
   inkscape:window-y="-9"
   inkscape:window-maximized="1"
   inkscape:current-layer="Layer_1" />
<g
   id="g5"
   transform="translate(-70.621)">
	<path
   style="fill:#e6eef4"
   d="M 423.724,0 H 88.276 C 78.522,0 70.621,7.901 70.621,17.655 v 476.69 c 0,9.754 7.901,17.655 17.655,17.655 h 335.448 c 9.754,0 17.655,-7.901 17.655,-17.655 V 17.655 C 441.379,7.901 433.479,0 423.724,0"
   id="path1" />
	<g
   id="g4">
		<path
   d="m 282.483,361.931 v 0 c 0,0 44.323,44.323 79.448,-8.828 18.282,-27.666 5.888,-54.616 -13.603,-73.242 l -83.906,-82.635 c -4.723,-4.025 -11.979,-4.025 -16.711,0 l -85.124,82.635 c -16.746,17.523 -31.011,45.506 -12.518,73.242 35.31,52.966 79.448,8.828 79.448,8.828 0,22.625 -6.444,51.703 -8.324,59.683 -0.256,1.112 0.6,2.11 1.739,2.11 h 66.145 c 1.139,0 1.986,-0.997 1.73,-2.101 -1.871,-8.006 -8.324,-37.208 -8.324,-59.692"
   id="path2" />
		<path
   d="m 123.587,97.103 c 19.503,0 35.31,-15.808 35.31,-35.31 0,-19.502 -15.808,-35.31 -35.31,-35.31 -4.058,0 -8.024,0.686 -11.778,2.017 -5.252,1.849 -9.826,5.02 -14.202,9.396 -3.447,3.447 -3.447,9.037 0,12.484 3.447,3.447 9.037,3.447 12.484,0 2.652,-2.652 5.113,-4.358 7.6,-5.234 1.883,-0.668 3.854,-1.008 5.896,-1.008 9.752,0 17.655,7.903 17.655,17.655 0,9.752 -7.903,17.655 -17.655,17.655 h -8.801 c -4.875,0 -8.828,3.952 -8.828,8.828 0,4.875 3.952,8.828 8.828,8.828 h 8.801 z"
   id="path3" />
		<path
   d="m 123.589,150.067 c 19.503,0 35.31,-15.808 35.31,-35.31 0,-19.502 -15.808,-35.31 -35.31,-35.31 h -8.828 c -4.875,0 -8.828,3.952 -8.828,8.828 0,4.875 3.952,8.828 8.828,8.828 h 8.828 c 9.752,0 17.655,7.903 17.655,17.655 0,9.752 -7.903,17.655 -17.655,17.655 -4.808,0 -9.446,-2.183 -13.47,-6.207 -3.447,-3.447 -9.037,-3.447 -12.484,0 -3.447,3.447 -3.447,9.037 0,12.484 7.15,7.15 16.133,11.377 25.954,11.377 z"
   id="path4" />
	</g>
</g>
</svg>
