<?xml version="1.0" encoding="UTF-8" standalone="no"?>
<!-- Created with Inkscape (http://www.inkscape.org/) -->

<svg
   version="1.1"
   id="svg1"
   width="581.97864"
   height="801.6712"
   viewBox="0 0 581.97864 801.6712"
   sodipodi:docname="spades-1.svg"
   inkscape:version="1.4 (86a8ad7, 2024-10-11)"
   xmlns:inkscape="http://www.inkscape.org/namespaces/inkscape"
   xmlns:sodipodi="http://sodipodi.sourceforge.net/DTD/sodipodi-0.dtd"
   xmlns="http://www.w3.org/2000/svg"
   xmlns:svg="http://www.w3.org/2000/svg">
  <sodipodi:namedview
     id="namedview1"
     pagecolor="#ffffff"
     bordercolor="#000000"
     borderopacity="0.25"
     inkscape:showpageshadow="2"
     inkscape:pageopacity="0.0"
     inkscape:pagecheckerboard="0"
     inkscape:deskcolor="#d1d1d1"
     inkscape:zoom="0.97875"
     inkscape:cx="291.18774"
     inkscape:cy="401.02171"
     inkscape:window-width="1920"
     inkscape:window-height="1001"
     inkscape:window-x="-9"
     inkscape:window-y="-9"
     inkscape:window-maximized="1"
     inkscape:current-layer="svg1" />
  <defs
     id="defs1" />
  <g
     id="g1"
     transform="translate(-108,1)">
    <path
       style="display:inline;fill:#e5edf3;stroke:none"
       d="m 132.10031,0.32172064 c -22.14949,4.17883296 -23,25.38342236 -23,43.53240936 v 135 432 120 c 0,16.15302 -4.04562,39.15833 3.37808,54 7.53839,15.07098 23.04711,15 37.62192,15 h 94 289 90 c 14.28345,0 31.08527,2.40771 45,-1.04321 21.54761,-5.34394 21,-27.1377 21,-44.95679 v -133 -439 -118 c 0,-15.364624 3.82184,-37.304993 -4.47913,-50.999207 -8.56219,-14.1251823 -24.17675,-13.00079269 -38.52087,-13.00079269 h -94 -284 -91 c -14.39906,0 -30.84322,-2.20330811 -45,0.46759033 z"
       id="path1-8" />
    <path
       style="fill:#010101;stroke:none"
       d="M 163,41.638916 C 144.74341,43.345276 150.94286,71.311584 150.99924,83 151.18733,121.99799 151,161.00153 151,200 c 0,11.86591 -3.36711,35.23419 15,33.88037 18.05669,-1.33093 12.01845,-29.40497 12,-40.88037 -0.0627,-38.99969 0,-78.00018 0,-117 0,-11.466431 3.26944,-36.068665 -15,-34.361084 M 358,566 c -1.01266,23.58154 -4.67572,46.75592 -8.75,70 -0.94513,5.39197 -6.89334,19.71533 -3.22147,24.39661 C 349.05356,664.25317 362.49625,662 367,662 h 62 c 4.56982,0 21.17334,2.49548 23.38196,-2.31787 2.81549,-6.13599 -3.31647,-21.13855 -4.57871,-27.68213 -4.16821,-21.60828 -7.34927,-44.00916 -7.80325,-66 18.22427,14.69012 39.61417,27.8418 64,26.625 43.93536,-2.19226 79.18762,-52.47949 73.71063,-94.625 -5.3609,-41.25208 -42.28729,-68.57666 -69.71063,-96 -23.83896,-23.83896 -48.15179,-47.15179 -72,-71 -8.26224,-8.26224 -19.93549,-24.49219 -32,-26.67053 -12.20743,-2.20413 -18.58371,4.96231 -27,12.38504 C 360.42953,331.32877 344.62497,347.37503 329,363 312.88718,379.11282 296.6745,395.3779 280,410.91049 253.75235,435.36066 226.25546,460.75946 220.43904,498 214.44856,536.35498 246.50301,587.47516 287,591.82642 315.14767,594.85071 336.38403,582.29071 358,566 Z"
       id="path1" />
  </g>
</svg>
