<?xml version="1.0" encoding="UTF-8" standalone="no"?>
<!-- Uploaded to: SVG Repo, www.svgrepo.com, Generator: SVG Repo Mixer Tools -->

<svg
   height="800"
   width="579.30939"
   version="1.1"
   id="Layer_1"
   viewBox="0 0 370.75801 512"
   xml:space="preserve"
   sodipodi:docname="spades-9.svg"
   inkscape:version="1.4 (86a8ad7, 2024-10-11)"
   xmlns:inkscape="http://www.inkscape.org/namespaces/inkscape"
   xmlns:sodipodi="http://sodipodi.sourceforge.net/DTD/sodipodi-0.dtd"
   xmlns="http://www.w3.org/2000/svg"
   xmlns:svg="http://www.w3.org/2000/svg"><defs
   id="defs5" /><sodipodi:namedview
   id="namedview5"
   pagecolor="#ffffff"
   bordercolor="#000000"
   borderopacity="0.25"
   inkscape:showpageshadow="2"
   inkscape:pageopacity="0.0"
   inkscape:pagecheckerboard="0"
   inkscape:deskcolor="#d1d1d1"
   inkscape:zoom="0.97875"
   inkscape:cx="289.14432"
   inkscape:cy="400"
   inkscape:window-width="1920"
   inkscape:window-height="1001"
   inkscape:window-x="-9"
   inkscape:window-y="-9"
   inkscape:window-maximized="1"
   inkscape:current-layer="Layer_1" />
<g
   id="g5"
   transform="translate(-70.621)">
	<path
   style="fill:#e6eef4"
   d="M 423.724,0 H 88.276 C 78.522,0 70.621,7.901 70.621,17.655 v 476.69 c 0,9.754 7.901,17.655 17.655,17.655 h 335.448 c 9.754,0 17.655,-7.901 17.655,-17.655 V 17.655 C 441.379,7.901 433.479,0 423.724,0"
   id="path1" />
	<g
   id="g4">
		<path
   d="m 282.483,361.931 v 0 c 0,0 44.323,44.323 79.448,-8.828 18.282,-27.666 5.888,-54.616 -13.603,-73.242 l -83.906,-82.635 c -4.723,-4.025 -11.979,-4.025 -16.711,0 l -85.124,82.635 c -16.746,17.523 -31.011,45.506 -12.518,73.242 35.31,52.966 79.448,8.828 79.448,8.828 0,22.625 -6.444,51.703 -8.324,59.683 -0.256,1.112 0.6,2.11 1.739,2.11 h 66.145 c 1.139,0 1.986,-0.997 1.73,-2.101 -1.871,-8.006 -8.324,-37.208 -8.324,-59.692"
   id="path2" />
		<path
   d="m 132.417,150.068 c 19.441,0 35.31,-15.869 35.31,-35.31 V 61.792 c 0,-4.875 -3.952,-8.828 -8.828,-8.828 -4.875,0 -8.828,3.952 -8.828,8.828 v 52.966 c 0,9.69 -7.965,17.655 -17.655,17.655 -7.484,0 -14.148,-4.792 -16.643,-11.772 -1.641,-4.591 -6.693,-6.982 -11.284,-5.341 -4.591,1.641 -6.982,6.693 -5.341,11.284 4.985,13.941 18.257,23.484 33.269,23.484 z"
   id="path3" />
		<path
   d="m 132.414,26.483 c -19.503,0 -35.31,15.808 -35.31,35.31 0,19.502 15.808,35.31 35.31,35.31 19.502,0 35.31,-15.808 35.31,-35.31 0,-19.502 -15.808,-35.31 -35.31,-35.31 z m 0,52.965 c -9.752,0 -17.655,-7.903 -17.655,-17.655 0,-9.752 7.903,-17.655 17.655,-17.655 9.752,0 17.655,7.903 17.655,17.655 0,9.752 -7.903,17.655 -17.655,17.655 z"
   id="path4" />
	</g>
</g>
</svg>
