<?xml version="1.0" encoding="UTF-8" standalone="no"?>
<!-- Created with Inkscape (http://www.inkscape.org/) -->

<svg
   version="1.1"
   id="svg1"
   width="581.97864"
   height="801.6712"
   viewBox="0 0 581.97864 801.6712"
   sodipodi:docname="spades-2.svg"
   inkscape:version="1.4 (86a8ad7, 2024-10-11)"
   xmlns:inkscape="http://www.inkscape.org/namespaces/inkscape"
   xmlns:sodipodi="http://sodipodi.sourceforge.net/DTD/sodipodi-0.dtd"
   xmlns="http://www.w3.org/2000/svg"
   xmlns:svg="http://www.w3.org/2000/svg">
  <sodipodi:namedview
     id="namedview1"
     pagecolor="#ffffff"
     bordercolor="#000000"
     borderopacity="0.25"
     inkscape:showpageshadow="2"
     inkscape:pageopacity="0.0"
     inkscape:pagecheckerboard="0"
     inkscape:deskcolor="#d1d1d1"
     inkscape:zoom="0.97875"
     inkscape:cx="291.18774"
     inkscape:cy="401.02171"
     inkscape:window-width="1920"
     inkscape:window-height="1001"
     inkscape:window-x="-9"
     inkscape:window-y="-9"
     inkscape:window-maximized="1"
     inkscape:current-layer="svg1" />
  <defs
     id="defs1" />
  <g
     id="g1"
     transform="translate(-108,1)">
    <path
       style="display:inline;fill:#e5edf3;stroke:none"
       d="m 132.10031,0.32172064 c -22.14949,4.17883296 -23,25.38342236 -23,43.53240936 v 135 432 120 c 0,16.15302 -4.04562,39.15833 3.37808,54 7.53839,15.07098 23.04711,15 37.62192,15 h 94 289 90 c 14.28345,0 31.08527,2.40771 45,-1.04321 21.54761,-5.34394 21,-27.1377 21,-44.95679 v -133 -439 -118 c 0,-15.364624 3.82184,-37.304993 -4.47913,-50.999207 -8.56219,-14.1251823 -24.17675,-13.00079269 -38.52087,-13.00079269 h -94 -284 -91 c -14.39906,0 -30.84322,-2.20330811 -45,0.46759033 z"
       id="path1-8" />
    <path
       style="fill:#020202;stroke:none"
       d="m 188,207 c 10.82791,-20.55731 24.189,-40.65088 38.42516,-59 16.1492,-20.81488 34.23909,-38.52887 28.06404,-67 -12.37873,-57.074097 -97.71099,-48.048462 -103.31867,8 -1.3094,13.08746 10.30969,30.46936 23.60108,16.78625 C 179.05087,101.38086 178.37639,94.560791 179.92747,89 181.87544,82.016418 186.7737,76.443726 193,72.880371 208.37849,64.079224 228.36455,74.367676 227.94522,93 c -0.29721,13.2063 -13.226,24.35052 -20.94522,34 -15.72044,19.65149 -29.52594,41.16229 -41.99924,63 -5.22381,9.14563 -17.52565,24.88586 -13.25848,35.99921 C 155.29387,235.2489 165.82054,235 174,235 h 63 c 8.14249,0 18.26523,0.59717 22.42746,-8.00385 5.15616,-10.6549 3.1106,-34.3623 -12.42746,-33.86267 -10.4828,0.3371 -8.97296,10.18152 -16.14429,13.26313 C 220.13503,211.00336 199.69461,207 188,207 m 170,359 c -1.8306,23.1947 -4.02072,46.09937 -8.60031,69 -1.08377,5.41956 -7.04038,20.71875 -3.37116,25.39661 C 349.05356,664.25317 362.49625,662 367,662 h 62 c 4.56982,0 21.17334,2.49548 23.38196,-2.31787 C 455.19745,653.54614 449.06549,638.54358 447.80325,632 443.608,610.25153 440.94849,588.08746 440,566 c 18.22427,14.69012 39.61417,27.8418 64,26.625 43.9588,-2.19342 79.18976,-52.46283 73.71063,-94.625 -5.3609,-41.25208 -42.28729,-68.57666 -69.71063,-96 -23.84027,-23.84027 -48.15143,-47.15143 -72,-71 -8.26224,-8.26224 -19.93549,-24.49219 -32,-26.67053 -12.20743,-2.20413 -18.58371,4.96231 -27,12.38504 C 360.42953,331.32877 344.62497,347.37503 329,363 312.88718,379.11282 296.6745,395.3779 280,410.91049 253.72487,435.38626 226.24762,460.73291 220.43904,498 214.45833,536.37146 246.49368,587.47412 287,591.82642 315.14767,594.85071 336.38403,582.29071 358,566 Z"
       id="path1" />
  </g>
</svg>
