<?xml version="1.0" encoding="UTF-8" standalone="no"?>
<!-- Uploaded to: SVG Repo, www.svgrepo.com, Generator: SVG Repo Mixer Tools -->

<svg
   height="800"
   width="579.30939"
   version="1.1"
   id="Layer_1"
   viewBox="0 0 370.75801 512"
   xml:space="preserve"
   sodipodi:docname="spades-5.svg"
   inkscape:version="1.4 (86a8ad7, 2024-10-11)"
   xmlns:inkscape="http://www.inkscape.org/namespaces/inkscape"
   xmlns:sodipodi="http://sodipodi.sourceforge.net/DTD/sodipodi-0.dtd"
   xmlns="http://www.w3.org/2000/svg"
   xmlns:svg="http://www.w3.org/2000/svg"><defs
   id="defs6" /><sodipodi:namedview
   id="namedview6"
   pagecolor="#ffffff"
   bordercolor="#000000"
   borderopacity="0.25"
   inkscape:showpageshadow="2"
   inkscape:pageopacity="0.0"
   inkscape:pagecheckerboard="0"
   inkscape:deskcolor="#d1d1d1"
   inkscape:zoom="0.97875"
   inkscape:cx="289.14432"
   inkscape:cy="400"
   inkscape:window-width="1920"
   inkscape:window-height="1001"
   inkscape:window-x="-9"
   inkscape:window-y="-9"
   inkscape:window-maximized="1"
   inkscape:current-layer="Layer_1" />
<g
   id="g6"
   transform="translate(-70.621)">
	<path
   style="fill:#e6eef4"
   d="M 423.724,0 H 88.276 C 78.522,0 70.621,7.901 70.621,17.655 v 476.69 c 0,9.754 7.901,17.655 17.655,17.655 h 335.448 c 9.754,0 17.655,-7.901 17.655,-17.655 V 17.655 C 441.379,7.901 433.479,0 423.724,0"
   id="path1" />
	<g
   id="g5">
		<path
   d="m 150.069,44.138 c 4.875,0 8.828,-3.952 8.828,-8.828 0,-4.876 -3.952,-8.828 -8.828,-8.828 h -44.138 c -4.875,0 -8.828,3.952 -8.828,8.828 0,4.876 3.952,8.828 8.828,8.828 z"
   id="path2" />
		<path
   d="m 97.103,79.448 c 0,4.875 3.952,8.828 8.828,8.828 4.875,0 8.828,-3.952 8.828,-8.828 V 35.31 c 0,-4.875 -3.952,-8.828 -8.828,-8.828 -4.875,0 -8.828,3.952 -8.828,8.828 z"
   id="path3" />
		<path
   d="m 126.535,134.376 c 20.041,0 36.29,-16.249 36.29,-36.29 0,-20.041 -16.249,-36.29 -36.29,-36.29 -10.545,0 -20.385,4.533 -27.223,12.283 -3.226,3.656 -2.877,9.234 0.779,12.46 3.656,3.226 9.234,2.877 12.46,-0.779 3.519,-3.988 8.556,-6.308 13.984,-6.308 10.29,0 18.635,8.345 18.635,18.635 0,10.29 -8.345,18.635 -18.635,18.635 -5.428,0 -10.459,-2.322 -13.984,-6.317 -3.226,-3.656 -8.804,-4.004 -12.46,-0.779 -3.656,3.226 -4.004,8.804 -0.779,12.46 6.841,7.753 16.674,12.29 27.223,12.29 z"
   id="path4" />
		<path
   d="m 282.483,361.931 v 0 c 0,0 44.323,44.323 79.448,-8.828 18.282,-27.666 5.888,-54.616 -13.603,-73.242 l -83.906,-82.635 c -4.723,-4.025 -11.979,-4.025 -16.711,0 l -85.124,82.635 c -16.746,17.523 -31.011,45.506 -12.518,73.242 35.31,52.966 79.448,8.828 79.448,8.828 0,22.625 -6.444,51.703 -8.324,59.683 -0.256,1.112 0.6,2.11 1.739,2.11 h 66.145 c 1.139,0 1.986,-0.997 1.73,-2.101 -1.871,-8.006 -8.324,-37.208 -8.324,-59.692"
   id="path5" />
	</g>
</g>
</svg>
